<svg xmlns="http://www.w3.org/2000/svg" viewBox="0 0 48 48"><path fill="#b3e5fc" d="M6,11c0-2.8,2.2-5,5-5h26c2.8,0,5,2.2,5,5v26c0,2.8-2.2,5-5,5H11c-2.8,0-5-2.2-5-5V11z"></path><path fill="#03a9f4" d="M42 16h-2v-4.8C40 9.5 38.5 8 36.8 8H32V6h4.8c2.9 0 5.3 2.4 5.3 5.3V16zM8 16H6v-4.8C6 8.4 8.4 6 11.3 6H16v2h-4.8C9.5 8 8 9.5 8 11.3V16zM16 42h-4.8C8.4 42 6 39.6 6 36.8V31h2v5.8c0 1.8 1.5 3.3 3.3 3.3H16V42zM36.8 42H32v-2h4.8c1.8 0 3.3-1.5 3.3-3.3V31h2v5.8C42 39.6 39.6 42 36.8 42zM23 28h-2v-2h2c.6 0 1-.4 1-1v-8h2v8C26 26.7 24.7 28 23 28zM15 17H17V22H15zM31 17H33V22H31zM24 34c-3.6 0-5.3-1-5.5-1.2l-.8-.5 1.1-1.7.8.5c.1 0 1.5.9 4.5.9 3 0 4.5-.8 4.5-.9l.9-.5 1 1.7-.8.5C29.3 33 27.6 34 24 34z"></path></svg>